
<svg xmlns="http://www.w3.org/2000/svg" width="14.031" height="14" viewBox="0 0 14.031 14">
  <metadata><?xpacket begin="﻿" id="W5M0MpCehiHzreSzNTczkc9d"?>
<x:xmpmeta xmlns:x="adobe:ns:meta/" x:xmptk="Adobe XMP Core 5.6-c142 79.160924, 2017/07/13-01:06:39        ">
   <rdf:RDF xmlns:rdf="http://www.w3.org/1999/02/22-rdf-syntax-ns#">
      <rdf:Description rdf:about=""/>
   </rdf:RDF>
</x:xmpmeta>
                                                                                                    
                                                                                                    
                                                                                                    
                                                                                                    
                                                                                                    
                                                                                                    
                                                                                                    
                                                                                                    
                                                                                                    
                                                                                                    
                                                                                                    
                                                                                                    
                                                                                                    
                                                                                                    
                                                                                                    
                                                                                                    
                                                                                                    
                                                                                                    
                                                                                                    
                                                                                                    
                           
<?xpacket end="w"?></metadata>
<defs>
    <style>
      .cls-1 {
        fill: #fff;
        fill-rule: evenodd;
      }
    </style>
  </defs>
  <path id="phone_icon" data-name="phone icon" class="cls-1" d="M176.92,812.517c0.56-.561,2.253-0.654,2.266-0.357s1.525,3.583,1.538,3.88a5.877,5.877,0,0,1-1.293,1.6c-0.292.293,1.977,2.859,2.02,2.907s2.612,2.313,2.905,2.02a5.892,5.892,0,0,1,1.6-1.293c0.3,0.013,3.582,1.526,3.878,1.539s0.2,1.706-.357,2.267c-0.479.479-2.96,2.218-7.273-.888a13.654,13.654,0,0,1-2.358-2.032l0,0,0,0,0,0,0,0a13.667,13.667,0,0,1-2.031-2.36C174.7,815.478,176.441,813,176.92,812.517Z" transform="translate(-175.969 -812)"/>
</svg>
